<svg version="1.1" xmlns="http://www.w3.org/2000/svg" xmlns:xlink="http://www.w3.org/1999/xlink" width="51.8686" height="51.8686" viewBox="0,0,51.8686,51.8686"><g transform="translate(-214.0657,-154.0657)"><g data-paper-data="{&quot;isPaintingLayer&quot;:true}" fill-rule="nonzero" stroke-linejoin="miter" stroke-miterlimit="10" stroke-dasharray="" stroke-dashoffset="0" style="mix-blend-mode: normal"><path d="M214.0657,180c0,-14.32312 11.61118,-25.9343 25.9343,-25.9343c14.32312,0 25.9343,11.61118 25.9343,25.9343c0,14.32312 -11.61118,25.9343 -25.9343,25.9343c-14.32312,0 -25.9343,-11.61118 -25.9343,-25.9343z" fill-opacity="0.50196" fill="#000000" stroke="none" stroke-width="0" stroke-linecap="butt"/><path d="M216.06987,180c0,-13.21624 10.71388,-23.93013 23.93013,-23.93013c13.21624,0 23.93013,10.71388 23.93013,23.93013c0,13.21624 -10.71388,23.93013 -23.93013,23.93013c-13.21624,0 -23.93013,-10.71388 -23.93013,-23.93013z" fill="none" stroke-opacity="0.50196" stroke="#ffffff" stroke-width="4" stroke-linecap="butt"/><path d="M232.98538,189.41964v-18.83927" fill="none" stroke="#ffffff" stroke-width="4" stroke-linecap="round"/><path d="M247.01462,189.41964v-18.83928" fill="none" stroke="#ffffff" stroke-width="4" stroke-linecap="round"/></g></g></svg>