<svg version="1.1" xmlns="http://www.w3.org/2000/svg" xmlns:xlink="http://www.w3.org/1999/xlink" width="99.62408" height="99.62408" viewBox="0,0,99.62408,99.62408"><g transform="translate(-270.18797,-190.18796)"><g data-paper-data="{&quot;isPaintingLayer&quot;:true}" fill-rule="nonzero" stroke-linejoin="miter" stroke-miterlimit="10" stroke-dasharray="" stroke-dashoffset="0" style="mix-blend-mode: normal"><path d="M270.21933,240.00001c0,-27.49311 22.28757,-49.78068 49.78068,-49.78068c27.49311,0 49.78068,22.28757 49.78068,49.78068c0,27.49311 -22.28757,49.78068 -49.78068,49.78068c-27.49311,0 -49.78068,-22.28757 -49.78068,-49.78068z" fill-opacity="0.50196" fill="#000000" stroke="none" stroke-width="0" stroke-linecap="butt"/><path d="M272.18797,240.00001c0,-26.40586 21.40618,-47.81204 47.81204,-47.81204c26.40586,0 47.81204,21.40618 47.81204,47.81204c0,26.40586 -21.40618,47.81204 -47.81204,47.81204c-26.40586,0 -47.81204,-21.40618 -47.81204,-47.81204z" fill="none" stroke-opacity="0.50196" stroke="#ffffff" stroke-width="4" stroke-linecap="butt"/><g fill="none" stroke="#ffffff" stroke-width="8" stroke-linecap="round"><path d="M322.4823,227.2201l27.05932,27.05932"/><path d="M322.48228,254.27941l27.05932,-27.05932"/></g><path d="M290.97902,246.95095v-11.34423h6.29428l11.42345,-18.17028l-0.41364,43.75739l-11.00981,-14.24286z" fill="#ffffff" stroke="#ffffff" stroke-width="8" stroke-linecap="butt"/></g></g></svg>