<svg version="1.1" xmlns="http://www.w3.org/2000/svg" xmlns:xlink="http://www.w3.org/1999/xlink" width="51.8686" height="51.8686" viewBox="0,0,51.8686,51.8686"><g transform="translate(-294.0657,-214.0657)"><g data-paper-data="{&quot;isPaintingLayer&quot;:true}" fill-rule="nonzero" stroke-linejoin="miter" stroke-miterlimit="10" stroke-dasharray="" stroke-dashoffset="0" style="mix-blend-mode: normal"><path d="M294.0657,240c0,-14.32312 11.61118,-25.9343 25.9343,-25.9343c14.32312,0 25.9343,11.61118 25.9343,25.9343c0,14.32312 -11.61118,25.9343 -25.9343,25.9343c-14.32312,0 -25.9343,-11.61118 -25.9343,-25.9343z" fill-opacity="0.50196" fill="#000000" stroke="none" stroke-width="0" stroke-linecap="butt"/><path d="M296.06987,240c0,-13.21624 10.71388,-23.93013 23.93013,-23.93013c13.21624,0 23.93013,10.71388 23.93013,23.93013c0,13.21624 -10.71388,23.93013 -23.93013,23.93013c-13.21624,0 -23.93013,-10.71388 -23.93013,-23.93013z" fill="none" stroke-opacity="0.50196" stroke="#ffffff" stroke-width="4" stroke-linecap="butt"/><g fill="none" stroke="#ffffff" stroke-width="4" stroke-linecap="round"><path d="M312.52612,248.41824v-16.86136"/><path d="M312.53587,248.45243l14.95883,-8.24702"/><path d="M327.46413,239.79459l-14.95883,-8.24702" data-paper-data="{&quot;index&quot;:null}"/></g></g></g></svg>