<svg version="1.1" xmlns="http://www.w3.org/2000/svg" xmlns:xlink="http://www.w3.org/1999/xlink" width="51.8686" height="51.8686" viewBox="0,0,51.8686,51.8686"><g transform="translate(-294.0657,-214.06571)"><g data-paper-data="{&quot;isPaintingLayer&quot;:true}" fill-rule="nonzero" stroke-linejoin="miter" stroke-miterlimit="10" stroke-dasharray="" stroke-dashoffset="0" style="mix-blend-mode: normal"><path d="M294.0657,240.00002c0,-14.32312 11.61118,-25.9343 25.9343,-25.9343c14.32312,0 25.9343,11.61118 25.9343,25.9343c0,14.32312 -11.61118,25.9343 -25.9343,25.9343c-14.32312,0 -25.9343,-11.61118 -25.9343,-25.9343z" fill-opacity="0.50196" fill="#000000" stroke="none" stroke-width="0" stroke-linecap="butt"/><path d="M296.06987,240.00002c0,-13.21624 10.71388,-23.93013 23.93013,-23.93013c13.21624,0 23.93013,10.71388 23.93013,23.93013c0,13.21624 -10.71388,23.93013 -23.93013,23.93013c-13.21624,0 -23.93013,-10.71388 -23.93013,-23.93013z" fill="none" stroke-opacity="0.50196" stroke="#ffffff" stroke-width="4" stroke-linecap="butt"/><path d="M306.2816,242.96042v-5.41566h3.00485l5.45348,-8.67437l-0.19747,20.88949l-5.25601,-6.79946z" fill="#ffffff" stroke="#ffffff" stroke-width="4" stroke-linecap="butt"/><path d="M324.23369,226.56535c12.58196,5.20028 12.71044,23.01662 0,26.86931" data-paper-data="{&quot;index&quot;:null}" fill="none" stroke="#ffffff" stroke-width="4" stroke-linecap="round"/><path d="M321.83712,232.32306c7.18969,2.97159 7.26311,13.15235 0,15.35389" data-paper-data="{&quot;index&quot;:null}" fill="none" stroke="#ffffff" stroke-width="4" stroke-linecap="round"/></g></g></svg>