<svg version="1.1" xmlns="http://www.w3.org/2000/svg" xmlns:xlink="http://www.w3.org/1999/xlink" width="99.62408" height="99.62408" viewBox="0,0,99.62408,99.62408"><g transform="translate(-270.18796,-190.18796)"><g data-paper-data="{&quot;isPaintingLayer&quot;:true}" fill-rule="nonzero" stroke-linejoin="miter" stroke-miterlimit="10" stroke-dasharray="" stroke-dashoffset="0" style="mix-blend-mode: normal"><path d="M270.21932,240c0,-27.49311 22.28757,-49.78068 49.78068,-49.78068c27.49311,0 49.78068,22.28757 49.78068,49.78068c0,27.49311 -22.28757,49.78068 -49.78068,49.78068c-27.49311,0 -49.78068,-22.28757 -49.78068,-49.78068z" fill-opacity="0.50196" fill="#000000" stroke="none" stroke-width="0" stroke-linecap="butt"/><path d="M272.18796,240c0,-26.40586 21.40618,-47.81204 47.81204,-47.81204c26.40586,0 47.81204,21.40618 47.81204,47.81204c0,26.40586 -21.40618,47.81204 -47.81204,47.81204c-26.40586,0 -47.81204,-21.40618 -47.81204,-47.81204z" fill="none" stroke-opacity="0.50196" stroke="#ffffff" stroke-width="4" stroke-linecap="butt"/><path d="M287.33044,238.7493h17.85303" fill="none" stroke="#ffffff" stroke-width="8" stroke-linecap="round"/><g fill="none" stroke="#ffffff" stroke-width="8" stroke-linecap="round"><path d="M329.84724,219.5612h-13.11771"/><path d="M316.57739,238.02811v-18.41979"/><path d="M316.57739,257.89648c21.56931,1.05719 20.55984,-18.71977 0,-19.10491"/></g><g fill="none" stroke="#ffffff" stroke-width="5" stroke-linecap="round"><path d="M342.38929,258.7515c10.38093,5.66336 14.59819,-4.3267 4.55468,-9.4181"/><path d="M347.34124,249.52333c-10.885,-4.62104 -5.67247,-14.12978 4.55468,-9.4181" data-paper-data="{&quot;index&quot;:null}"/></g></g></g></svg>