<svg version="1.1" xmlns="http://www.w3.org/2000/svg" xmlns:xlink="http://www.w3.org/1999/xlink" width="51.8686" height="51.8686" viewBox="0,0,51.8686,51.8686"><g transform="translate(-294.0657,-214.06571)"><g data-paper-data="{&quot;isPaintingLayer&quot;:true}" fill-rule="nonzero" stroke-linejoin="miter" stroke-miterlimit="10" stroke-dasharray="" stroke-dashoffset="0" style="mix-blend-mode: normal"><path d="M294.0657,240.00002c0,-14.32312 11.61118,-25.9343 25.9343,-25.9343c14.32312,0 25.9343,11.61118 25.9343,25.9343c0,14.32312 -11.61118,25.9343 -25.9343,25.9343c-14.32312,0 -25.9343,-11.61118 -25.9343,-25.9343z" fill-opacity="0.50196" fill="#000000" stroke="none" stroke-width="0" stroke-linecap="butt"/><path d="M296.06987,240.00002c0,-13.21624 10.71388,-23.93013 23.93013,-23.93013c13.21624,0 23.93013,10.71388 23.93013,23.93013c0,13.21624 -10.71388,23.93013 -23.93013,23.93013c-13.21624,0 -23.93013,-10.71388 -23.93013,-23.93013z" fill="none" stroke-opacity="0.50196" stroke="#ffffff" stroke-width="4" stroke-linecap="butt"/><path d="" fill="none" stroke="#ffffff" stroke-width="4" stroke-linecap="round"/><g fill="none" stroke="#808080" stroke-width="4"><path d="M310.32329,246.44933l-0.00582,-0.00212" stroke-linecap="round"/><g><path d="M318.28857,231.07034c4.26752,-0.4375 8.53232,1.82361 10.44861,5.93027c2.42038,5.18692 0.17766,11.35387 -5.00927,13.77426c-4.9627,2.31575 -10.82254,0.36284 -13.43974,-4.35325" stroke-linecap="butt"/><g stroke-linecap="round"><path d="M317.61191,231.55018l3.26807,1.98504"/><path d="M317.60418,231.51854l1.98504,-3.26806" data-paper-data="{&quot;index&quot;:null}"/></g></g></g><g fill="none" stroke="#ffffff" stroke-width="4" stroke-linecap="round"><path d="M309.07455,229.07456l21.85091,21.85091"/><path d="M309.07455,250.92546l21.8509,-21.8509" data-paper-data="{&quot;index&quot;:null}"/></g></g></g></svg>