<svg version="1.1" xmlns="http://www.w3.org/2000/svg" xmlns:xlink="http://www.w3.org/1999/xlink" width="99.62408" height="99.62408" viewBox="0,0,99.62408,99.62408"><g transform="translate(-270.18797,-190.18797)"><g data-paper-data="{&quot;isPaintingLayer&quot;:true}" fill-rule="nonzero" stroke-linejoin="miter" stroke-miterlimit="10" stroke-dasharray="" stroke-dashoffset="0" style="mix-blend-mode: normal"><path d="M270.21933,240.00002c0,-27.49311 22.28757,-49.78068 49.78068,-49.78068c27.49311,0 49.78068,22.28757 49.78068,49.78068c0,27.49311 -22.28757,49.78068 -49.78068,49.78068c-27.49311,0 -49.78068,-22.28757 -49.78068,-49.78068z" fill-opacity="0.50196" fill="#000000" stroke="none" stroke-width="0" stroke-linecap="butt"/><path d="M272.18797,240.00002c0,-26.40586 21.40618,-47.81204 47.81204,-47.81204c26.40586,0 47.81204,21.40618 47.81204,47.81204c0,26.40586 -21.40618,47.81204 -47.81204,47.81204c-26.40586,0 -47.81204,-21.40618 -47.81204,-47.81204z" fill="none" stroke-opacity="0.50196" stroke="#ffffff" stroke-width="4" stroke-linecap="butt"/><path d="M289.5621,246.56848v-12.01608h6.66706l12.09999,-19.24639l-0.43814,46.34887l-11.66185,-15.0864z" fill="#ffffff" stroke="#ffffff" stroke-width="8" stroke-linecap="butt"/><path d="M329.39357,210.19167c27.91641,11.5382 28.20148,51.06847 0,59.61669" data-paper-data="{&quot;index&quot;:null}" fill="none" stroke="#ffffff" stroke-width="8" stroke-linecap="round"/><path d="M324.07614,222.96667c15.95223,6.59326 16.11513,29.18197 0,34.06667" data-paper-data="{&quot;index&quot;:null}" fill="none" stroke="#ffffff" stroke-width="8" stroke-linecap="round"/></g></g></svg>