<svg version="1.1" xmlns="http://www.w3.org/2000/svg" xmlns:xlink="http://www.w3.org/1999/xlink" width="99.62408" height="99.62408" viewBox="0,0,99.62408,99.62408"><g transform="translate(-270.18795,-190.18795)"><g data-paper-data="{&quot;isPaintingLayer&quot;:true}" fill-rule="nonzero" stroke-linejoin="miter" stroke-miterlimit="10" stroke-dasharray="" stroke-dashoffset="0" style="mix-blend-mode: normal"><path d="M270.21932,240c0,-27.49311 22.28757,-49.78068 49.78068,-49.78068c27.49311,0 49.78068,22.28757 49.78068,49.78068c0,27.49311 -22.28757,49.78068 -49.78068,49.78068c-27.49311,0 -49.78068,-22.28757 -49.78068,-49.78068z" fill-opacity="0.50196" fill="#000000" stroke="none" stroke-width="0" stroke-linecap="butt"/><path d="M272.18796,240c0,-26.40586 21.40618,-47.81204 47.81204,-47.81204c26.40586,0 47.81204,21.40618 47.81204,47.81204c0,26.40586 -21.40618,47.81204 -47.81204,47.81204c-26.40586,0 -47.81204,-21.40618 -47.81204,-47.81204z" fill="none" stroke-opacity="0.50196" stroke="#ffffff" stroke-width="4" stroke-linecap="butt"/><g fill="none" stroke="#ffffff" stroke-width="8" stroke-linecap="round"><path d="M304.53168,257.42281v-34.89713"/><path d="M304.55186,257.49358l30.95955,-17.06845"/><path d="M335.44814,239.57487l-30.95955,-17.06845" data-paper-data="{&quot;index&quot;:null}"/></g></g></g></svg>