<svg version="1.1" xmlns="http://www.w3.org/2000/svg" xmlns:xlink="http://www.w3.org/1999/xlink" width="99.62408" height="99.62408" viewBox="0,0,99.62408,99.62408"><g transform="translate(-270.18796,-190.18796)"><g data-paper-data="{&quot;isPaintingLayer&quot;:true}" fill-rule="nonzero" stroke-linejoin="miter" stroke-miterlimit="10" stroke-dasharray="" stroke-dashoffset="0" style="mix-blend-mode: normal"><path d="M270.21932,240c0,-27.49311 22.28757,-49.78068 49.78068,-49.78068c27.49311,0 49.78068,22.28757 49.78068,49.78068c0,27.49311 -22.28757,49.78068 -49.78068,49.78068c-27.49311,0 -49.78068,-22.28757 -49.78068,-49.78068z" fill-opacity="0.50196" fill="#000000" stroke="none" stroke-width="0" stroke-linecap="butt"/><path d="M272.18796,240c0,-26.40586 21.40618,-47.81204 47.81204,-47.81204c26.40586,0 47.81204,21.40618 47.81204,47.81204c0,26.40586 -21.40618,47.81204 -47.81204,47.81204c-26.40586,0 -47.81204,-21.40618 -47.81204,-47.81204z" fill="none" stroke-opacity="0.50196" stroke="#ffffff" stroke-width="4" stroke-linecap="butt"/><g fill="none" stroke="#ffffff" stroke-width="8" stroke-linecap="round"><path d="M340.99182,238.53944c-0.34184,18.24835 -17.89532,19.14432 -16.95699,0"/><path d="M324.03483,238.59534c-0.93833,-19.14432 16.61515,-18.24835 16.95699,0" data-paper-data="{&quot;index&quot;:null}"/></g><g fill="none" stroke="#ffffff" stroke-width="8" stroke-linecap="round"><path d="M317.40477,252.94974h-17.68741"/><path d="M308.56108,224.35125v24.57862"/><path d="M308.49759,224.18504l-8.37218,8.37216"/></g><path d="M280.94802,237.31668h8.81127" fill="none" stroke="#ffffff" stroke-width="8" stroke-linecap="round"/><g fill="none" stroke="#ffffff" stroke-width="5" stroke-linecap="round"><path d="M354.26584,246.53173c8.39558,4.256 4.87028,12.6069 -3.80736,7.87278"/><path d="M354.59793,246.69049c-9.099,-3.86282 -4.74174,-11.81137 3.80734,-7.87279" data-paper-data="{&quot;index&quot;:null}"/></g><path d="M285.35366,232.91105v8.81127" fill="none" stroke="#ffffff" stroke-width="8" stroke-linecap="round"/></g></g></svg>