<svg version="1.1" xmlns="http://www.w3.org/2000/svg" xmlns:xlink="http://www.w3.org/1999/xlink" width="51.8686" height="51.8686" viewBox="0,0,51.8686,51.8686"><g transform="translate(-294.0657,-214.0657)"><g data-paper-data="{&quot;isPaintingLayer&quot;:true}" fill-rule="nonzero" stroke-linejoin="miter" stroke-miterlimit="10" stroke-dasharray="" stroke-dashoffset="0" style="mix-blend-mode: normal"><path d="M294.0657,240.00001c0,-14.32312 11.61118,-25.9343 25.9343,-25.9343c14.32312,0 25.9343,11.61118 25.9343,25.9343c0,14.32312 -11.61118,25.9343 -25.9343,25.9343c-14.32312,0 -25.9343,-11.61118 -25.9343,-25.9343z" fill-opacity="0.50196" fill="#000000" stroke="none" stroke-width="0" stroke-linecap="butt"/><path d="M296.06987,240.00001c0,-13.21624 10.71388,-23.93013 23.93013,-23.93013c13.21624,0 23.93013,10.71388 23.93013,23.93013c0,13.21624 -10.71388,23.93013 -23.93013,23.93013c-13.21624,0 -23.93013,-10.71388 -23.93013,-23.93013z" fill="none" stroke-opacity="0.50196" stroke="#ffffff" stroke-width="4" stroke-linecap="butt"/><path d="" fill="none" stroke="#ffffff" stroke-width="4" stroke-linecap="round"/><g fill="none" stroke="#ffffff" stroke-width="4"><path d="M322.10818,250.30611l-0.00417,0.00458" stroke-linecap="round"/><g><path d="M310.90444,237.09871c1.21536,-4.11413 4.92627,-7.20124 9.45298,-7.41503c5.71747,-0.27003 10.57131,4.14599 10.84135,9.86347c0.25836,5.47032 -3.77296,10.15006 -9.12957,10.78093" stroke-linecap="butt"/><g stroke-linecap="round"><path d="M311.09148,237.90688l3.07711,-2.26981"/><path d="M311.05927,237.90202l-2.2698,-3.07711" data-paper-data="{&quot;index&quot;:null}"/></g></g></g></g></g></svg>